NotoSansHanifiRohingya-Regular.ufo
<glyph name="guillemotright" format="2">
	<unicode hex="00BB"/>
	<advance width="509"/>
	<outline>
		<contour>
			<point x="101" y="56" type="line"/>
			<point x="270" y="257" type="line"/>
			<point x="270" y="270" type="line"/>
			<point x="101" y="471" type="line"/>
			<point x="39" y="435" type="line"/>
			<point x="179" y="264" type="line"/>
			<point x="39" y="93" type="line"/>
		</contour>
		<contour>
			<point x="299" y="56" type="line"/>
			<point x="469" y="257" type="line"/>
			<point x="469" y="270" type="line"/>
			<point x="299" y="471" type="line"/>
			<point x="237" y="435" type="line"/>
			<point x="377" y="264" type="line"/>
			<point x="237" y="93" type="line"/>
		</contour>
	</outline>
</glyph>
<glyph name="comma-ar" format="2">
	<unicode hex="060C"/>
	<advance width="283"/>
	<outline>
		<contour>
			<point x="72" y="0" type="line"/>
			<point x="169" y="0" type="line"/>
			<point x="182" y="79"/>
			<point x="198" y="160"/>
			<point x="218" y="245" type="curve"/>
			<point x="151" y="245" type="line"/>
			<point x="113" y="160"/>
			<point x="84" y="82"/>
			<point x="65" y="11" type="curve"/>
		</contour>
	</outline>
</glyph>
<glyph name="question-ar" format="2">
	<unicode hex="061F"/>
	<advance width="506"/>
	<outline>
		<contour>
			<point x="263" y="201" type="line"/>
			<point x="333" y="201" type="line"/>
			<point x="333" y="228" type="line" smooth="yes"/>
			<point x="333" y="303"/>
			<point x="314" y="343"/>
			<point x="249" y="398" type="curve" smooth="yes"/>
			<point x="172" y="463"/>
			<point x="149" y="487"/>
			<point x="149" y="547" type="curve" smooth="yes"/>
			<point x="149" y="611"/>
			<point x="192" y="647"/>
			<point x="270" y="647" type="curve" smooth="yes"/>
			<point x="336" y="647"/>
			<point x="384" y="627"/>
			<point x="430" y="605" type="curve"/>
			<point x="461" y="675" type="line"/>
			<point x="408" y="703"/>
			<point x="344" y="724"/>
			<point x="264" y="724" type="curve" smooth="yes"/>
			<point x="137" y="724"/>
			<point x="65" y="657"/>
			<point x="65" y="549" type="curve" smooth="yes"/>
			<point x="65" y="459"/>
			<point x="111" y="418"/>
			<point x="183" y="358" type="curve" smooth="yes"/>
			<point x="250" y="302"/>
			<point x="263" y="275"/>
			<point x="263" y="218" type="curve" smooth="yes"/>
		</contour>
		<contour>
			<point x="294" y="-14" type="curve" smooth="yes"/>
			<point x="330" y="-14"/>
			<point x="356" y="6"/>
			<point x="356" y="54" type="curve" smooth="yes"/>
			<point x="356" y="103"/>
			<point x="330" y="121"/>
			<point x="294" y="121" type="curve" smooth="yes"/>
			<point x="261" y="121"/>
			<point x="233" y="103"/>
			<point x="233" y="54" type="curve" smooth="yes"/>
			<point x="233" y="6"/>
			<point x="261" y="-14"/>
		</contour>
	</outline>
</glyph>
<glyph name="kashida-ar" format="2">
	<unicode hex="0640"/>
	<advance width="250"/>
	<outline>
		<contour>
			<point x="-25" y="16" type="line"/>
			<point x="-10" y="8"/>
			<point x="23" y="0"/>
			<point x="43" y="0" type="curve" smooth="yes"/>
			<point x="284" y="0" type="line"/>
			<point x="284" y="78" type="line"/>
			<point x="-25" y="78" type="line"/>
		</contour>
	</outline>
</glyph>
<glyph name="zero-ar" format="2">
	<unicode hex="0660"/>
	<advance width="308"/>
	<outline>
		<contour>
			<point x="154" y="263" type="curve" smooth="yes"/>
			<point x="192" y="263"/>
			<point x="216" y="288"/>
			<point x="216" y="329" type="curve" smooth="yes"/>
			<point x="216" y="370"/>
			<point x="192" y="395"/>
			<point x="154" y="395" type="curve" smooth="yes"/>
			<point x="115" y="395"/>
			<point x="92" y="371"/>
			<point x="92" y="329" type="curve" smooth="yes"/>
			<point x="92" y="287"/>
			<point x="115" y="263"/>
		</contour>
	</outline>
</glyph>
<glyph name="fullstop-fa.urdu" format="2">
	<unicode hex="06D4"/>
	<advance width="254"/>
	<outline>
		<contour>
			<point x="126" y="-10" type="curve" smooth="yes"/>
			<point x="160" y="-10"/>
			<point x="189" y="10"/>
			<point x="189" y="58" type="curve" smooth="yes"/>
			<point x="189" y="107"/>
			<point x="160" y="125"/>
			<point x="126" y="125" type="curve" smooth="yes"/>
			<point x="92" y="125"/>
			<point x="65" y="107"/>
			<point x="65" y="58" type="curve" smooth="yes"/>
			<point x="65" y="10"/>
			<point x="92" y="-10"/>
		</contour>
	</outline>
</glyph>
<glyph name="ZWNJ" format="2">
	<unicode hex="200C"/>
	<outline>
		<contour>
			<point x="-19" y="-217" type="line"/>
			<point x="20" y="-217" type="line"/>
			<point x="20" y="576" type="line"/>
			<point x="-19" y="576" type="line"/>
		</contour>
	</outline>
</glyph>
<glyph name="ma-rohg" format="2">
	<unicode hex="10D14"/>
	<advance width="737"/>
	<outline>
		<contour>
			<point x="274" y="0" type="curve" smooth="yes"/>
			<point x="339" y="0"/>
			<point x="391" y="30"/>
			<point x="420" y="76" type="curve"/>
			<point x="449" y="169" type="line" smooth="yes"/>
			<point x="477" y="260"/>
			<point x="501" y="292"/>
			<point x="542" y="292" type="curve" smooth="yes"/>
			<point x="590" y="292"/>
			<point x="618" y="252"/>
			<point x="618" y="185" type="curve" smooth="yes"/>
			<point x="618" y="116"/>
			<point x="588" y="78"/>
			<point x="535" y="78" type="curve" smooth="yes"/>
			<point x="483" y="78"/>
			<point x="444" y="104"/>
			<point x="421" y="153" type="curve"/>
			<point x="385" y="65" type="line"/>
			<point x="436" y="17"/>
			<point x="475" y="0"/>
			<point x="534" y="0" type="curve" smooth="yes"/>
			<point x="645" y="0"/>
			<point x="707" y="66"/>
			<point x="707" y="185" type="curve" smooth="yes"/>
			<point x="707" y="299"/>
			<point x="646" y="368"/>
			<point x="545" y="368" type="curve" smooth="yes"/>
			<point x="457" y="368"/>
			<point x="409" y="321"/>
			<point x="372" y="200" type="curve" smooth="yes"/>
			<point x="357" y="152" type="line" smooth="yes"/>
			<point x="346" y="118"/>
			<point x="323" y="78"/>
			<point x="274" y="78" type="curve" smooth="yes"/>
			<point x="227" y="78"/>
			<point x="206" y="118"/>
			<point x="206" y="179" type="curve" smooth="yes"/>
			<point x="206" y="443" type="line"/>
			<point x="206" y="453" type="line"/>
			<point x="206" y="567" type="line" smooth="yes"/>
			<point x="206" y="620"/>
			<point x="231" y="649"/>
			<point x="270" y="649" type="curve" smooth="yes"/>
			<point x="308" y="649"/>
			<point x="329" y="620"/>
			<point x="329" y="583" type="curve" smooth="yes"/>
			<point x="329" y="536"/>
			<point x="295" y="508"/>
			<point x="236" y="508" type="curve" smooth="yes"/>
			<point x="137" y="508" type="line"/>
			<point x="127" y="508" type="line"/>
			<point x="10" y="508" type="line"/>
			<point x="10" y="433" type="line"/>
			<point x="239" y="433" type="line" smooth="yes"/>
			<point x="344" y="433"/>
			<point x="415" y="494"/>
			<point x="415" y="584" type="curve" smooth="yes"/>
			<point x="415" y="665"/>
			<point x="356" y="724"/>
			<point x="270" y="724" type="curve" smooth="yes"/>
			<point x="181" y="724"/>
			<point x="117" y="660"/>
			<point x="117" y="567" type="curve" smooth="yes"/>
			<point x="117" y="179" type="line" smooth="yes"/>
			<point x="117" y="65"/>
			<point x="170" y="0"/>
		</contour>
	</outline>
	<anchor name="top" x="442" y="714"/>
</glyph>
<glyph name="sakin-rohg" format="2">
	<unicode hex="10D22"/>
	<advance width="364"/>
	<outline>
		<contour>
			<point x="10" y="16" type="line"/>
			<point x="25" y="8"/>
			<point x="60" y="0"/>
			<point x="80" y="0" type="curve" smooth="yes"/>
			<point x="94" y="0" type="line" smooth="yes"/>
			<point x="219" y="0"/>
			<point x="284" y="84"/>
			<point x="284" y="247" type="curve" smooth="yes"/>
			<point x="284" y="323" type="line"/>
			<point x="195" y="323" type="line"/>
			<point x="195" y="247" type="line" smooth="yes"/>
			<point x="195" y="127"/>
			<point x="160" y="78"/>
			<point x="75" y="78" type="curve" smooth="yes"/>
			<point x="10" y="78" type="line"/>
		</contour>
	</outline>
	<anchor name="top" x="239" y="714"/>
</glyph>
<glyph name="harbahay-rohg" format="2">
	<unicode hex="10D24"/>
	<outline>
		<contour>
			<point x="4" y="892" type="curve" smooth="yes"/>
			<point x="63" y="892"/>
			<point x="111" y="927"/>
			<point x="111" y="1001" type="curve" smooth="yes"/>
			<point x="111" y="1079" type="line"/>
			<point x="40" y="1079" type="line"/>
			<point x="40" y="1001" type="line" smooth="yes"/>
			<point x="40" y="976"/>
			<point x="24" y="956"/>
			<point x="-7" y="956" type="curve" smooth="yes"/>
			<point x="-37" y="956"/>
			<point x="-49" y="971"/>
			<point x="-58" y="987" type="curve"/>
			<point x="-81" y="928" type="line"/>
			<point x="-67" y="909"/>
			<point x="-35" y="892"/>
		</contour>
		<contour>
			<point x="-111" y="802" type="line"/>
			<point x="-40" y="802" type="line"/>
			<point x="-40" y="1079" type="line"/>
			<point x="-111" y="1079" type="line"/>
		</contour>
	</outline>
	<anchor name="_top" x="0" y="714"/>
	<anchor name="top" x="0" y="1089"/>
</glyph>
<glyph name="tahala-rohg" format="2">
	<unicode hex="10D25"/>
	<outline>
		<contour>
			<point x="-38" y="791" type="line"/>
			<point x="-15" y="800" type="line" smooth="yes"/>
			<point x="34" y="819"/>
			<point x="59" y="847"/>
			<point x="59" y="883" type="curve" smooth="yes"/>
			<point x="59" y="902"/>
			<point x="53" y="923"/>
			<point x="41" y="943" type="curve" smooth="yes"/>
			<point x="25" y="972" type="line" smooth="yes"/>
			<point x="21" y="979"/>
			<point x="19" y="986"/>
			<point x="19" y="992" type="curve" smooth="yes"/>
			<point x="19" y="1003"/>
			<point x="26" y="1010"/>
			<point x="41" y="1016" type="curve" smooth="yes"/>
			<point x="67" y="1026" type="line"/>
			<point x="39" y="1089" type="line"/>
			<point x="16" y="1080" type="line" smooth="yes"/>
			<point x="-33" y="1061"/>
			<point x="-58" y="1033"/>
			<point x="-58" y="997" type="curve" smooth="yes"/>
			<point x="-58" y="979"/>
			<point x="-52" y="957"/>
			<point x="-40" y="937" type="curve" smooth="yes"/>
			<point x="-24" y="908" type="line" smooth="yes"/>
			<point x="-20" y="901"/>
			<point x="-18" y="894"/>
			<point x="-18" y="888" type="curve" smooth="yes"/>
			<point x="-18" y="877"/>
			<point x="-25" y="870"/>
			<point x="-40" y="864" type="curve" smooth="yes"/>
			<point x="-66" y="854" type="line"/>
		</contour>
	</outline>
	<anchor name="_top" x="0" y="714"/>
	<anchor name="top" x="0" y="1079"/>
</glyph>
<glyph name="tana-rohg" format="2">
	<unicode hex="10D26"/>
	<outline>
		<contour>
			<point x="-150" y="861" type="line"/>
			<point x="-128" y="894"/>
			<point x="-103" y="924"/>
			<point x="-60" y="924" type="curve" smooth="yes"/>
			<point x="-42" y="924"/>
			<point x="-25" y="920"/>
			<point x="-7" y="914" type="curve" smooth="yes"/>
			<point x="14" y="907"/>
			<point x="38" y="902"/>
			<point x="68" y="902" type="curve" smooth="yes"/>
			<point x="143" y="902"/>
			<point x="183" y="943"/>
			<point x="212" y="1024" type="curve"/>
			<point x="142" y="1050" type="line"/>
			<point x="124" y="1007"/>
			<point x="110" y="977"/>
			<point x="63" y="977" type="curve" smooth="yes"/>
			<point x="41" y="977"/>
			<point x="22" y="981"/>
			<point x="3" y="987" type="curve" smooth="yes"/>
			<point x="-17" y="993"/>
			<point x="-38" y="999"/>
			<point x="-66" y="999" type="curve" smooth="yes"/>
			<point x="-132" y="999"/>
			<point x="-181" y="952"/>
			<point x="-212" y="901" type="curve"/>
		</contour>
	</outline>
	<anchor name="_top" x="0" y="714"/>
	<anchor name="top" x="0" y="1003"/>
</glyph>
<glyph name="tassi-rohg" format="2">
	<unicode hex="10D27"/>
	<outline>
		<contour>
			<point x="-82" y="824" type="curve" smooth="yes"/>
			<point x="-34" y="824"/>
			<point x="-2" y="848"/>
			<point x="20" y="905" type="curve"/>
			<point x="-16" y="905" type="line"/>
			<point x="3" y="849"/>
			<point x="35" y="824"/>
			<point x="83" y="824" type="curve" smooth="yes"/>
			<point x="133" y="824"/>
			<point x="181" y="859"/>
			<point x="181" y="933" type="curve" smooth="yes"/>
			<point x="181" y="1039" type="line"/>
			<point x="110" y="1039" type="line"/>
			<point x="110" y="933" type="line" smooth="yes"/>
			<point x="110" y="900"/>
			<point x="94" y="888"/>
			<point x="73" y="888" type="curve" smooth="yes"/>
			<point x="52" y="888"/>
			<point x="36" y="900"/>
			<point x="36" y="933" type="curve" smooth="yes"/>
			<point x="36" y="999" type="line"/>
			<point x="-35" y="999" type="line"/>
			<point x="-35" y="933" type="line" smooth="yes"/>
			<point x="-35" y="900"/>
			<point x="-51" y="888"/>
			<point x="-72" y="888" type="curve" smooth="yes"/>
			<point x="-93" y="888"/>
			<point x="-109" y="900"/>
			<point x="-109" y="933" type="curve" smooth="yes"/>
			<point x="-109" y="1039" type="line"/>
			<point x="-180" y="1039" type="line"/>
			<point x="-180" y="933" type="line" smooth="yes"/>
			<point x="-180" y="859"/>
			<point x="-132" y="824"/>
		</contour>
	</outline>
	<anchor name="_top" x="0" y="714"/>
	<anchor name="top" x="0" y="1019"/>
</glyph>
<glyph name="zero-rohg" format="2">
	<unicode hex="10D30"/>
	<advance width="562"/>
	<outline>
		<contour>
			<point x="281" y="-10" type="curve" smooth="yes"/>
			<point x="426" y="-10"/>
			<point x="497" y="111"/>
			<point x="497" y="357" type="curve" smooth="yes"/>
			<point x="497" y="603"/>
			<point x="426" y="724"/>
			<point x="281" y="724" type="curve" smooth="yes"/>
			<point x="136" y="724"/>
			<point x="65" y="603"/>
			<point x="65" y="357" type="curve" smooth="yes"/>
			<point x="65" y="111"/>
			<point x="136" y="-10"/>
		</contour>
		<contour>
			<point x="281" y="68" type="curve" smooth="yes"/>
			<point x="191" y="68"/>
			<point x="154" y="152"/>
			<point x="154" y="357" type="curve" smooth="yes"/>
			<point x="154" y="562"/>
			<point x="191" y="646"/>
			<point x="281" y="646" type="curve" smooth="yes"/>
			<point x="371" y="646"/>
			<point x="408" y="562"/>
			<point x="408" y="357" type="curve" smooth="yes"/>
			<point x="408" y="152"/>
			<point x="371" y="68"/>
		</contour>
	</outline>
</glyph>
<glyph name="two-rohg" format="2">
	<unicode hex="10D32"/>
	<advance width="525"/>
	<outline>
		<contour>
			<point x="370" y="-14" type="line"/>
			<point x="430" y="144"/>
			<point x="460" y="282"/>
			<point x="460" y="403" type="curve" smooth="yes"/>
			<point x="460" y="607"/>
			<point x="374" y="724"/>
			<point x="224" y="724" type="curve" smooth="yes"/>
			<point x="107" y="724"/>
			<point x="20" y="644"/>
			<point x="20" y="535" type="curve" smooth="yes"/>
			<point x="20" y="430"/>
			<point x="105" y="355"/>
			<point x="226" y="355" type="curve" smooth="yes"/>
			<point x="247" y="355" type="line"/>
			<point x="247" y="433" type="line"/>
			<point x="227" y="433" type="line" smooth="yes"/>
			<point x="156" y="433"/>
			<point x="109" y="473"/>
			<point x="109" y="535" type="curve" smooth="yes"/>
			<point x="109" y="599"/>
			<point x="157" y="646"/>
			<point x="224" y="646" type="curve" smooth="yes"/>
			<point x="317" y="646"/>
			<point x="371" y="558"/>
			<point x="371" y="405" type="curve" smooth="yes"/>
			<point x="371" y="293"/>
			<point x="343" y="168"/>
			<point x="282" y="12" type="curve"/>
		</contour>
	</outline>
</glyph>
<glyph name="three-rohg" format="2">
	<unicode hex="10D33"/>
	<advance width="607"/>
	<outline>
		<contour>
			<point x="291" y="-10" type="curve" smooth="yes"/>
			<point x="452" y="-10"/>
			<point x="552" y="87"/>
			<point x="552" y="245" type="curve" smooth="yes"/>
			<point x="552" y="375"/>
			<point x="487" y="462"/>
			<point x="293" y="592" type="curve" smooth="yes"/>
			<point x="233" y="632" type="line"/>
			<point x="233" y="636" type="line"/>
			<point x="528" y="636" type="line"/>
			<point x="528" y="714" type="line"/>
			<point x="76" y="714" type="line"/>
			<point x="76" y="648" type="line"/>
			<point x="243" y="536" type="line" smooth="yes"/>
			<point x="403" y="428"/>
			<point x="463" y="349"/>
			<point x="463" y="244" type="curve" smooth="yes"/>
			<point x="463" y="134"/>
			<point x="398" y="68"/>
			<point x="288" y="68" type="curve" smooth="yes"/>
			<point x="198" y="68"/>
			<point x="134" y="118"/>
			<point x="134" y="187" type="curve" smooth="yes"/>
			<point x="134" y="245"/>
			<point x="181" y="288"/>
			<point x="244" y="288" type="curve" smooth="yes"/>
			<point x="300" y="288" type="line"/>
			<point x="300" y="366" type="line"/>
			<point x="244" y="366" type="line" smooth="yes"/>
			<point x="131" y="366"/>
			<point x="45" y="290"/>
			<point x="45" y="190" type="curve" smooth="yes"/>
			<point x="45" y="74"/>
			<point x="148" y="-10"/>
		</contour>
	</outline>
</glyph>
<glyph name="four-rohg" format="2">
	<unicode hex="10D34"/>
	<advance width="724"/>
	<outline>
		<contour>
			<point x="250" y="-10" type="curve" smooth="yes"/>
			<point x="356" y="-10"/>
			<point x="418" y="58"/>
			<point x="418" y="175" type="curve" smooth="yes"/>
			<point x="418" y="204" type="line"/>
			<point x="337" y="204" type="line"/>
			<point x="337" y="175" type="line" smooth="yes"/>
			<point x="337" y="104"/>
			<point x="307" y="66"/>
			<point x="252" y="66" type="curve" smooth="yes"/>
			<point x="183" y="66"/>
			<point x="155" y="126"/>
			<point x="155" y="272" type="curve" smooth="yes"/>
			<point x="155" y="330" type="line" smooth="yes"/>
			<point x="155" y="500"/>
			<point x="202" y="588"/>
			<point x="292" y="588" type="curve" smooth="yes"/>
			<point x="429" y="588"/>
			<point x="535" y="387"/>
			<point x="535" y="127" type="curve" smooth="yes"/>
			<point x="535" y="0" type="line"/>
			<point x="624" y="0" type="line"/>
			<point x="624" y="714" type="line"/>
			<point x="539" y="714" type="line"/>
			<point x="539" y="466" type="line"/>
			<point x="534" y="466" type="line"/>
			<point x="484" y="595"/>
			<point x="399" y="666"/>
			<point x="291" y="666" type="curve" smooth="yes"/>
			<point x="142" y="666"/>
			<point x="65" y="551"/>
			<point x="65" y="328" type="curve" smooth="yes"/>
			<point x="65" y="272" type="line" smooth="yes"/>
			<point x="65" y="82"/>
			<point x="126" y="-10"/>
		</contour>
	</outline>
</glyph>
<glyph name="five-rohg" format="2">
	<unicode hex="10D35"/>
	<advance width="778"/>
	<outline>
		<contour>
			<point x="593" y="0" type="line"/>
			<point x="593" y="78" type="line"/>
			<point x="456" y="78" type="line"/>
			<point x="481" y="53" type="line"/>
			<point x="481" y="113" type="line" smooth="yes"/>
			<point x="481" y="280"/>
			<point x="510" y="334"/>
			<point x="643" y="417" type="curve" smooth="yes"/>
			<point x="659" y="427" type="line" smooth="yes"/>
			<point x="724" y="466"/>
			<point x="753" y="508"/>
			<point x="753" y="563" type="curve" smooth="yes"/>
			<point x="753" y="635"/>
			<point x="695" y="687"/>
			<point x="615" y="687" type="curve" smooth="yes"/>
			<point x="537" y="687"/>
			<point x="474" y="629"/>
			<point x="474" y="557" type="curve" smooth="yes"/>
			<point x="474" y="500"/>
			<point x="515" y="450"/>
			<point x="572" y="439" type="curve"/>
			<point x="570" y="459" type="line"/>
			<point x="444" y="391"/>
			<point x="392" y="290"/>
			<point x="392" y="113" type="curve" smooth="yes"/>
			<point x="392" y="55" type="line"/>
			<point x="417" y="78" type="line"/>
			<point x="402" y="78" type="line" smooth="yes"/>
			<point x="252" y="78"/>
			<point x="154" y="186"/>
			<point x="154" y="350" type="curve" smooth="yes"/>
			<point x="154" y="489"/>
			<point x="224" y="592"/>
			<point x="366" y="664" type="curve"/>
			<point x="323" y="732" type="line"/>
			<point x="155" y="646"/>
			<point x="65" y="514"/>
			<point x="65" y="351" type="curve" smooth="yes"/>
			<point x="65" y="148"/>
			<point x="203" y="0"/>
			<point x="392" y="0" type="curve" smooth="yes"/>
		</contour>
		<contour>
			<point x="614" y="499" type="curve" smooth="yes"/>
			<point x="581" y="499"/>
			<point x="558" y="521"/>
			<point x="558" y="554" type="curve" smooth="yes"/>
			<point x="558" y="588"/>
			<point x="582" y="613"/>
			<point x="615" y="613" type="curve" smooth="yes"/>
			<point x="647" y="613"/>
			<point x="670" y="588"/>
			<point x="670" y="555" type="curve" smooth="yes"/>
			<point x="670" y="522"/>
			<point x="647" y="499"/>
		</contour>
	</outline>
</glyph>
<glyph name="six-rohg" format="2">
	<unicode hex="10D36"/>
	<advance width="643"/>
	<outline>
		<contour>
			<point x="295" y="-10" type="curve" smooth="yes"/>
			<point x="466" y="-10"/>
			<point x="563" y="113"/>
			<point x="563" y="329" type="curve" smooth="yes"/>
			<point x="563" y="714" type="line"/>
			<point x="121" y="714" type="line"/>
			<point x="121" y="636" type="line"/>
			<point x="474" y="636" type="line"/>
			<point x="474" y="329" type="line" smooth="yes"/>
			<point x="474" y="160"/>
			<point x="411" y="68"/>
			<point x="295" y="68" type="curve" smooth="yes"/>
			<point x="202" y="68"/>
			<point x="139" y="122"/>
			<point x="139" y="201" type="curve" smooth="yes"/>
			<point x="139" y="281"/>
			<point x="196" y="329"/>
			<point x="292" y="329" type="curve" smooth="yes"/>
			<point x="360" y="329" type="line"/>
			<point x="360" y="407" type="line"/>
			<point x="292" y="407" type="line" smooth="yes"/>
			<point x="145" y="407"/>
			<point x="50" y="326"/>
			<point x="50" y="201" type="curve" smooth="yes"/>
			<point x="50" y="77"/>
			<point x="151" y="-10"/>
		</contour>
	</outline>
</glyph>
<glyph name="seven-rohg" format="2">
	<unicode hex="10D37"/>
	<advance width="680"/>
	<outline>
		<contour>
			<point x="131" y="-10" type="curve" smooth="yes"/>
			<point x="193" y="-10"/>
			<point x="228" y="15"/>
			<point x="278" y="94" type="curve" smooth="yes"/>
			<point x="631" y="648" type="line"/>
			<point x="631" y="714" type="line"/>
			<point x="147" y="714" type="line"/>
			<point x="147" y="636" type="line"/>
			<point x="582" y="636" type="line"/>
			<point x="557" y="681" type="line"/>
			<point x="217" y="148" type="line"/>
			<point x="217" y="97" type="line"/>
			<point x="291" y="41" type="line" smooth="yes"/>
			<point x="335" y="7"/>
			<point x="394" y="-10"/>
			<point x="464" y="-10" type="curve" smooth="yes"/>
			<point x="545" y="-10"/>
			<point x="601" y="15"/>
			<point x="655" y="74" type="curve"/>
			<point x="608" y="134" type="line"/>
			<point x="560" y="87"/>
			<point x="518" y="68"/>
			<point x="463" y="68" type="curve" smooth="yes"/>
			<point x="419" y="68"/>
			<point x="376" y="81"/>
			<point x="337" y="107" type="curve" smooth="yes"/>
			<point x="297" y="134" type="line"/>
			<point x="260" y="150" type="line"/>
			<point x="250" y="205"/>
			<point x="198" y="244"/>
			<point x="134" y="244" type="curve" smooth="yes"/>
			<point x="60" y="244"/>
			<point x="0" y="187"/>
			<point x="0" y="115" type="curve" smooth="yes"/>
			<point x="0" y="44"/>
			<point x="56" y="-10"/>
		</contour>
		<contour>
			<point x="137" y="60" type="curve" smooth="yes"/>
			<point x="104" y="60"/>
			<point x="81" y="82"/>
			<point x="81" y="115" type="curve" smooth="yes"/>
			<point x="81" y="149"/>
			<point x="105" y="174"/>
			<point x="138" y="174" type="curve" smooth="yes"/>
			<point x="170" y="174"/>
			<point x="193" y="149"/>
			<point x="193" y="116" type="curve" smooth="yes"/>
			<point x="193" y="83"/>
			<point x="170" y="60"/>
		</contour>
	</outline>
</glyph>
<glyph name="eight-rohg" format="2">
	<unicode hex="10D38"/>
	<advance width="724"/>
	<outline>
		<contour>
			<point x="100" y="0" type="line"/>
			<point x="189" y="0" type="line"/>
			<point x="189" y="127" type="line" smooth="yes"/>
			<point x="189" y="387"/>
			<point x="295" y="588"/>
			<point x="432" y="588" type="curve" smooth="yes"/>
			<point x="522" y="588"/>
			<point x="569" y="500"/>
			<point x="569" y="330" type="curve" smooth="yes"/>
			<point x="569" y="272" type="line" smooth="yes"/>
			<point x="569" y="126"/>
			<point x="541" y="66"/>
			<point x="472" y="66" type="curve" smooth="yes"/>
			<point x="417" y="66"/>
			<point x="387" y="104"/>
			<point x="387" y="175" type="curve" smooth="yes"/>
			<point x="387" y="204" type="line"/>
			<point x="306" y="204" type="line"/>
			<point x="306" y="175" type="line" smooth="yes"/>
			<point x="306" y="58"/>
			<point x="368" y="-10"/>
			<point x="474" y="-10" type="curve" smooth="yes"/>
			<point x="598" y="-10"/>
			<point x="659" y="82"/>
			<point x="659" y="272" type="curve" smooth="yes"/>
			<point x="659" y="328" type="line" smooth="yes"/>
			<point x="659" y="551"/>
			<point x="582" y="666"/>
			<point x="433" y="666" type="curve" smooth="yes"/>
			<point x="325" y="666"/>
			<point x="240" y="595"/>
			<point x="190" y="466" type="curve"/>
			<point x="185" y="466" type="line"/>
			<point x="185" y="714" type="line"/>
			<point x="100" y="714" type="line"/>
		</contour>
	</outline>
</glyph>
<glyph name="nine-rohg" format="2">
	<unicode hex="10D39"/>
	<advance width="590"/>
	<outline>
		<contour>
			<point x="298" y="0" type="line"/>
			<point x="374" y="0" type="line"/>
			<point x="580" y="218" type="line"/>
			<point x="517" y="272" type="line"/>
			<point x="439" y="184" type="line" smooth="yes"/>
			<point x="409" y="150"/>
			<point x="394" y="132"/>
			<point x="383" y="117" type="curve"/>
			<point x="386" y="138"/>
			<point x="387" y="165"/>
			<point x="387" y="222" type="curve" smooth="yes"/>
			<point x="387" y="543" type="line" smooth="yes"/>
			<point x="387" y="650"/>
			<point x="318" y="724"/>
			<point x="218" y="724" type="curve" smooth="yes"/>
			<point x="103" y="724"/>
			<point x="35" y="645"/>
			<point x="35" y="509" type="curve" smooth="yes"/>
			<point x="35" y="458" type="line" smooth="yes"/>
			<point x="35" y="344"/>
			<point x="102" y="263"/>
			<point x="197" y="263" type="curve" smooth="yes"/>
			<point x="254" y="263"/>
			<point x="289" y="281"/>
			<point x="318" y="325" type="curve"/>
			<point x="298" y="316" type="line"/>
		</contour>
		<contour>
			<point x="210" y="340" type="curve" smooth="yes"/>
			<point x="157" y="340"/>
			<point x="124" y="386"/>
			<point x="124" y="458" type="curve" smooth="yes"/>
			<point x="124" y="509" type="line" smooth="yes"/>
			<point x="124" y="600"/>
			<point x="154" y="646"/>
			<point x="214" y="646" type="curve" smooth="yes"/>
			<point x="264" y="646"/>
			<point x="298" y="604"/>
			<point x="298" y="542" type="curve" smooth="yes"/>
			<point x="298" y="443" type="line" smooth="yes"/>
			<point x="298" y="383"/>
			<point x="262" y="340"/>
		</contour>
	</outline>
</glyph>
<glyph name="avowel-rohg.init" format="2">
	<advance width="527"/>
	<outline>
		<contour>
			<point x="-35" y="16" type="line"/>
			<point x="-20" y="8"/>
			<point x="15" y="0"/>
			<point x="35" y="0" type="curve" smooth="yes"/>
			<point x="280" y="0" type="line" smooth="yes"/>
			<point x="406" y="0"/>
			<point x="482" y="64"/>
			<point x="482" y="170" type="curve" smooth="yes"/>
			<point x="482" y="258"/>
			<point x="417" y="323"/>
			<point x="327" y="323" type="curve" smooth="yes"/>
			<point x="251" y="323"/>
			<point x="200" y="289"/>
			<point x="122" y="193" type="curve" smooth="yes"/>
			<point x="25" y="74" type="line"/>
			<point x="128" y="74" type="line"/>
			<point x="201" y="163" type="line" smooth="yes"/>
			<point x="249" y="221"/>
			<point x="279" y="245"/>
			<point x="321" y="245" type="curve" smooth="yes"/>
			<point x="363" y="245"/>
			<point x="393" y="212"/>
			<point x="393" y="166" type="curve" smooth="yes"/>
			<point x="393" y="108"/>
			<point x="355" y="78"/>
			<point x="283" y="78" type="curve" smooth="yes"/>
			<point x="-35" y="78" type="line"/>
		</contour>
	</outline>
	<anchor name="top" x="250" y="714"/>
</glyph>
<glyph name="ba-rohg.init" format="2">
	<advance width="389"/>
	<outline>
		<contour>
			<point x="-35" y="16" type="line"/>
			<point x="-20" y="8"/>
			<point x="15" y="0"/>
			<point x="35" y="0" type="curve" smooth="yes"/>
			<point x="63" y="0" type="line" smooth="yes"/>
			<point x="224" y="0"/>
			<point x="309" y="100"/>
			<point x="309" y="289" type="curve" smooth="yes"/>
			<point x="309" y="597" type="line" smooth="yes"/>
			<point x="309" y="671"/>
			<point x="264" y="714"/>
			<point x="187" y="714" type="curve" smooth="yes"/>
			<point x="71" y="714" type="line"/>
			<point x="71" y="636" type="line"/>
			<point x="178" y="636" type="line" smooth="yes"/>
			<point x="204" y="636"/>
			<point x="220" y="620"/>
			<point x="220" y="596" type="curve" smooth="yes"/>
			<point x="220" y="289" type="line" smooth="yes"/>
			<point x="220" y="148"/>
			<point x="168" y="78"/>
			<point x="63" y="78" type="curve" smooth="yes"/>
			<point x="-35" y="78" type="line"/>
		</contour>
	</outline>
	<anchor name="top" x="181" y="714"/>
</glyph>
<glyph name="ca-rohg.init" format="2">
	<advance width="559"/>
	<outline>
		<contour>
			<point x="297" y="0" type="curve" smooth="yes"/>
			<point x="416" y="0"/>
			<point x="479" y="69"/>
			<point x="479" y="199" type="curve" smooth="yes"/>
			<point x="479" y="714" type="line"/>
			<point x="390" y="714" type="line"/>
			<point x="390" y="199" type="line" smooth="yes"/>
			<point x="390" y="116"/>
			<point x="357" y="78"/>
			<point x="287" y="78" type="curve" smooth="yes"/>
			<point x="235" y="78"/>
			<point x="188" y="91"/>
			<point x="139" y="119" type="curve"/>
			<point x="104" y="60" type="line"/>
			<point x="173" y="16"/>
			<point x="224" y="0"/>
		</contour>
		<contour>
			<point x="-35" y="16" type="line"/>
			<point x="-20" y="8"/>
			<point x="15" y="0"/>
			<point x="35" y="0" type="curve" smooth="yes"/>
			<point x="104" y="0"/>
			<point x="148" y="30"/>
			<point x="225" y="128" type="curve" smooth="yes"/>
			<point x="413" y="369" type="line"/>
			<point x="413" y="494" type="line"/>
			<point x="176" y="189" type="line" smooth="yes"/>
			<point x="104" y="96"/>
			<point x="77" y="78"/>
			<point x="14" y="78" type="curve" smooth="yes"/>
			<point x="-35" y="78" type="line"/>
		</contour>
	</outline>
	<anchor name="top" x="316" y="714"/>
</glyph>
<glyph name="da-rohg.init" format="2">
	<advance width="427"/>
	<outline>
		<contour>
			<point x="-35" y="16" type="line"/>
			<point x="-20" y="8"/>
			<point x="15" y="0"/>
			<point x="35" y="0" type="curve" smooth="yes"/>
			<point x="154" y="0" type="line" smooth="yes"/>
			<point x="297" y="0"/>
			<point x="382" y="91"/>
			<point x="382" y="244" type="curve" smooth="yes"/>
			<point x="382" y="371"/>
			<point x="299" y="456"/>
			<point x="174" y="456" type="curve" smooth="yes"/>
			<point x="130" y="456"/>
			<point x="84" y="443"/>
			<point x="46" y="421" type="curve"/>
			<point x="77" y="353" type="line"/>
			<point x="111" y="371"/>
			<point x="139" y="378"/>
			<point x="174" y="378" type="curve" smooth="yes"/>
			<point x="241" y="378"/>
			<point x="292" y="321"/>
			<point x="292" y="244" type="curve" smooth="yes"/>
			<point x="292" y="136"/>
			<point x="243" y="78"/>
			<point x="154" y="78" type="curve" smooth="yes"/>
			<point x="-35" y="78" type="line"/>
		</contour>
	</outline>
	<anchor name="top" x="203" y="714"/>
</glyph>
<glyph name="dda-rohg.init" format="2">
	<advance width="732"/>
	<outline>
		<contour>
			<point x="99" y="61" type="line"/>
			<point x="188" y="61" type="line"/>
			<point x="188" y="714" type="line"/>
			<point x="99" y="714" type="line"/>
		</contour>
		<contour>
			<point x="-35" y="16" type="line"/>
			<point x="-20" y="8"/>
			<point x="15" y="0"/>
			<point x="35" y="0" type="curve" smooth="yes"/>
			<point x="410" y="0" type="line" smooth="yes"/>
			<point x="587" y="0"/>
			<point x="687" y="74"/>
			<point x="687" y="204" type="curve" smooth="yes"/>
			<point x="687" y="309"/>
			<point x="612" y="380"/>
			<point x="503" y="380" type="curve" smooth="yes"/>
			<point x="388" y="380"/>
			<point x="264" y="302"/>
			<point x="179" y="186" type="curve"/>
			<point x="179" y="82" type="line"/>
			<point x="278" y="219"/>
			<point x="396" y="301"/>
			<point x="496" y="301" type="curve" smooth="yes"/>
			<point x="561" y="301"/>
			<point x="598" y="265"/>
			<point x="598" y="203" type="curve" smooth="yes"/>
			<point x="598" y="119"/>
			<point x="530" y="78"/>
			<point x="391" y="78" type="curve" smooth="yes"/>
			<point x="-35" y="78" type="line"/>
		</contour>
		<contour>
			<point x="324" y="59" type="curve"/>
			<point x="413" y="59" type="line"/>
			<point x="426" y="85"/>
			<point x="434" y="116"/>
			<point x="434" y="146" type="curve" smooth="yes"/>
			<point x="434" y="212"/>
			<point x="401" y="268"/>
			<point x="343" y="298" type="curve"/>
			<point x="292" y="239" type="line"/>
			<point x="333" y="227"/>
			<point x="355" y="194"/>
			<point x="355" y="146" type="curve" smooth="yes"/>
			<point x="355" y="113"/>
			<point x="344" y="83"/>
		</contour>
	</outline>
	<anchor name="top" x="394" y="714"/>
</glyph>
<glyph name="ga-rohg.init" format="2">
	<advance width="648"/>
	<outline>
		<contour>
			<point x="-35" y="16" type="line"/>
			<point x="-20" y="8"/>
			<point x="15" y="0"/>
			<point x="35" y="0" type="curve" smooth="yes"/>
			<point x="119" y="0" type="line" smooth="yes"/>
			<point x="184" y="0"/>
			<point x="234" y="16"/>
			<point x="272" y="49" type="curve"/>
			<point x="242" y="49" type="line"/>
			<point x="277" y="18"/>
			<point x="335" y="0"/>
			<point x="402" y="0" type="curve" smooth="yes"/>
			<point x="618" y="0" type="line"/>
			<point x="618" y="78" type="line"/>
			<point x="402" y="78" type="line" smooth="yes"/>
			<point x="296" y="78"/>
			<point x="235" y="152"/>
			<point x="235" y="281" type="curve" smooth="yes"/>
			<point x="235" y="394"/>
			<point x="281" y="460"/>
			<point x="358" y="460" type="curve" smooth="yes"/>
			<point x="410" y="460"/>
			<point x="444" y="429"/>
			<point x="444" y="383" type="curve" smooth="yes"/>
			<point x="444" y="346"/>
			<point x="421" y="323"/>
			<point x="384" y="323" type="curve" smooth="yes"/>
			<point x="354" y="323" type="line"/>
			<point x="354" y="247" type="line"/>
			<point x="385" y="247" type="line" smooth="yes"/>
			<point x="471" y="247"/>
			<point x="531" y="304"/>
			<point x="531" y="384" type="curve" smooth="yes"/>
			<point x="531" y="472"/>
			<point x="460" y="536"/>
			<point x="361" y="536" type="curve" smooth="yes"/>
			<point x="232" y="536"/>
			<point x="146" y="432"/>
			<point x="146" y="277" type="curve" smooth="yes"/>
			<point x="146" y="191"/>
			<point x="170" y="121"/>
			<point x="216" y="74" type="curve"/>
			<point x="212" y="108" type="line"/>
			<point x="188" y="88"/>
			<point x="155" y="78"/>
			<point x="110" y="78" type="curve" smooth="yes"/>
			<point x="-35" y="78" type="line"/>
		</contour>
	</outline>
	<anchor name="top" x="339" y="714"/>
</glyph>
<glyph name="ha-rohg.init" format="2">
	<advance width="699"/>
	<outline>
		<contour>
			<point x="-35" y="16" type="line"/>
			<point x="-20" y="8"/>
			<point x="15" y="0"/>
			<point x="35" y="0" type="curve" smooth="yes"/>
			<point x="59" y="0" type="line" smooth="yes"/>
			<point x="159" y="0"/>
			<point x="236" y="23"/>
			<point x="283" y="67" type="curve"/>
			<point x="349" y="112"/>
			<point x="383" y="167"/>
			<point x="383" y="229" type="curve" smooth="yes"/>
			<point x="383" y="318"/>
			<point x="309" y="386"/>
			<point x="212" y="386" type="curve" smooth="yes"/>
			<point x="113" y="386"/>
			<point x="39" y="316"/>
			<point x="39" y="224" type="curve" smooth="yes"/>
			<point x="39" y="158"/>
			<point x="77" y="105"/>
			<point x="147" y="77" type="curve"/>
			<point x="148" y="89" type="line"/>
			<point x="118" y="79"/>
			<point x="107" y="78"/>
			<point x="54" y="78" type="curve" smooth="yes"/>
			<point x="-35" y="78" type="line"/>
		</contour>
		<contour>
			<point x="211" y="128" type="curve" smooth="yes"/>
			<point x="160" y="128"/>
			<point x="123" y="168"/>
			<point x="123" y="221" type="curve" smooth="yes"/>
			<point x="123" y="274"/>
			<point x="159" y="312"/>
			<point x="211" y="312" type="curve" smooth="yes"/>
			<point x="263" y="312"/>
			<point x="299" y="274"/>
			<point x="299" y="221" type="curve" smooth="yes"/>
			<point x="299" y="168"/>
			<point x="262" y="128"/>
		</contour>
		<contour>
			<point x="426" y="0" type="curve" smooth="yes"/>
			<point x="569" y="0"/>
			<point x="654" y="91"/>
			<point x="654" y="244" type="curve" smooth="yes"/>
			<point x="654" y="289" type="line" smooth="yes"/>
			<point x="654" y="430"/>
			<point x="571" y="526"/>
			<point x="449" y="526" type="curve" smooth="yes"/>
			<point x="354" y="526"/>
			<point x="273" y="453"/>
			<point x="245" y="341" type="curve"/>
			<point x="322" y="300" type="line"/>
			<point x="334" y="392"/>
			<point x="382" y="448"/>
			<point x="449" y="448" type="curve" smooth="yes"/>
			<point x="516" y="448"/>
			<point x="564" y="382"/>
			<point x="564" y="290" type="curve" smooth="yes"/>
			<point x="564" y="244" type="line" smooth="yes"/>
			<point x="564" y="136"/>
			<point x="515" y="78"/>
			<point x="426" y="78" type="curve" smooth="yes"/>
			<point x="374" y="78"/>
			<point x="332" y="86"/>
			<point x="281" y="106" type="curve"/>
			<point x="211" y="51" type="line"/>
			<point x="281" y="20"/>
			<point x="367" y="0"/>
		</contour>
	</outline>
	<anchor name="top" x="392" y="714"/>
</glyph>
<glyph name="ja-rohg.init" format="2">
	<advance width="559"/>
	<outline>
		<contour>
			<point x="297" y="0" type="curve" smooth="yes"/>
			<point x="416" y="0"/>
			<point x="479" y="69"/>
			<point x="479" y="199" type="curve" smooth="yes"/>
			<point x="479" y="566" type="line" smooth="yes"/>
			<point x="479" y="670"/>
			<point x="428" y="724"/>
			<point x="329" y="724" type="curve" smooth="yes"/>
			<point x="236" y="724"/>
			<point x="186" y="665"/>
			<point x="186" y="556" type="curve" smooth="yes"/>
			<point x="186" y="525" type="line"/>
			<point x="273" y="525" type="line"/>
			<point x="273" y="555" type="line" smooth="yes"/>
			<point x="273" y="619"/>
			<point x="290" y="648"/>
			<point x="329" y="648" type="curve" smooth="yes"/>
			<point x="368" y="648"/>
			<point x="390" y="619"/>
			<point x="390" y="566" type="curve" smooth="yes"/>
			<point x="390" y="199" type="line" smooth="yes"/>
			<point x="390" y="116"/>
			<point x="357" y="78"/>
			<point x="287" y="78" type="curve" smooth="yes"/>
			<point x="235" y="78"/>
			<point x="188" y="91"/>
			<point x="139" y="119" type="curve"/>
			<point x="104" y="60" type="line"/>
			<point x="173" y="16"/>
			<point x="224" y="0"/>
		</contour>
		<contour>
			<point x="-35" y="16" type="line"/>
			<point x="-20" y="8"/>
			<point x="15" y="0"/>
			<point x="35" y="0" type="curve" smooth="yes"/>
			<point x="104" y="0"/>
			<point x="148" y="30"/>
			<point x="225" y="128" type="curve" smooth="yes"/>
			<point x="413" y="369" type="line"/>
			<point x="413" y="494" type="line"/>
			<point x="176" y="189" type="line" smooth="yes"/>
			<point x="104" y="97"/>
			<point x="77" y="78"/>
			<point x="14" y="78" type="curve" smooth="yes"/>
			<point x="-35" y="78" type="line"/>
		</contour>
	</outline>
	<anchor name="top" x="316" y="714"/>
</glyph>
<glyph name="ka-rohg.init" format="2">
	<advance width="732"/>
	<outline>
		<contour>
			<point x="188" y="32" type="line"/>
			<point x="188" y="557" type="line" smooth="yes"/>
			<point x="188" y="617"/>
			<point x="205" y="646"/>
			<point x="239" y="646" type="curve" smooth="yes"/>
			<point x="272" y="646"/>
			<point x="288" y="617"/>
			<point x="288" y="557" type="curve" smooth="yes"/>
			<point x="288" y="235" type="line"/>
			<point x="377" y="295" type="line"/>
			<point x="377" y="557" type="line" smooth="yes"/>
			<point x="377" y="663"/>
			<point x="326" y="724"/>
			<point x="238" y="724" type="curve" smooth="yes"/>
			<point x="150" y="724"/>
			<point x="99" y="663"/>
			<point x="99" y="557" type="curve" smooth="yes"/>
			<point x="99" y="32" type="line"/>
		</contour>
		<contour>
			<point x="-35" y="16" type="line"/>
			<point x="-20" y="8"/>
			<point x="15" y="0"/>
			<point x="35" y="0" type="curve" smooth="yes"/>
			<point x="410" y="0" type="line" smooth="yes"/>
			<point x="587" y="0"/>
			<point x="687" y="74"/>
			<point x="687" y="204" type="curve" smooth="yes"/>
			<point x="687" y="309"/>
			<point x="612" y="380"/>
			<point x="503" y="380" type="curve" smooth="yes"/>
			<point x="389" y="380"/>
			<point x="265" y="303"/>
			<point x="180" y="188" type="curve"/>
			<point x="180" y="83" type="line"/>
			<point x="278" y="219"/>
			<point x="397" y="301"/>
			<point x="496" y="301" type="curve" smooth="yes"/>
			<point x="561" y="301"/>
			<point x="598" y="265"/>
			<point x="598" y="203" type="curve" smooth="yes"/>
			<point x="598" y="119"/>
			<point x="530" y="78"/>
			<point x="391" y="78" type="curve" smooth="yes"/>
			<point x="-35" y="78" type="line"/>
		</contour>
	</outline>
	<anchor name="top" x="243" y="714"/>
</glyph>
<glyph name="kha-rohg.init" format="2">
	<advance width="458"/>
	<outline>
		<contour>
			<point x="-35" y="16" type="line"/>
			<point x="-20" y="8"/>
			<point x="15" y="0"/>
			<point x="35" y="0" type="curve" smooth="yes"/>
			<point x="173" y="0" type="line" smooth="yes"/>
			<point x="324" y="0"/>
			<point x="419" y="94"/>
			<point x="419" y="244" type="curve" smooth="yes"/>
			<point x="419" y="383"/>
			<point x="327" y="470"/>
			<point x="179" y="470" type="curve" smooth="yes"/>
			<point x="163" y="470" type="line"/>
			<point x="160" y="429" type="line"/>
			<point x="199" y="459" type="line"/>
			<point x="325" y="555" type="line"/>
			<point x="448" y="651" type="line"/>
			<point x="398" y="716" type="line"/>
			<point x="91" y="466" type="line"/>
			<point x="91" y="400" type="line"/>
			<point x="153" y="400" type="line" smooth="yes"/>
			<point x="272" y="400"/>
			<point x="330" y="349"/>
			<point x="330" y="244" type="curve" smooth="yes"/>
			<point x="330" y="140"/>
			<point x="272" y="78"/>
			<point x="173" y="78" type="curve" smooth="yes"/>
			<point x="-35" y="78" type="line"/>
		</contour>
	</outline>
	<anchor name="top" x="245" y="714"/>
</glyph>
<glyph name="kinnawa-rohg.init" format="2">
	<advance width="539"/>
	<outline>
		<contour>
			<point x="-35" y="16" type="line"/>
			<point x="-20" y="8"/>
			<point x="15" y="0"/>
			<point x="35" y="0" type="curve" smooth="yes"/>
			<point x="213" y="0" type="line" smooth="yes"/>
			<point x="374" y="0"/>
			<point x="459" y="100"/>
			<point x="459" y="289" type="curve" smooth="yes"/>
			<point x="459" y="605" type="line" smooth="yes"/>
			<point x="459" y="683"/>
			<point x="419" y="724"/>
			<point x="345" y="724" type="curve" smooth="yes"/>
			<point x="326" y="724"/>
			<point x="293" y="719"/>
			<point x="195" y="699" type="curve" smooth="yes"/>
			<point x="94" y="679"/>
			<point x="42" y="630"/>
			<point x="42" y="556" type="curve" smooth="yes"/>
			<point x="42" y="483"/>
			<point x="97" y="432"/>
			<point x="175" y="432" type="curve" smooth="yes"/>
			<point x="255" y="432"/>
			<point x="310" y="485"/>
			<point x="310" y="560" type="curve" smooth="yes"/>
			<point x="310" y="614"/>
			<point x="277" y="652"/>
			<point x="221" y="663" type="curve"/>
			<point x="256" y="631" type="line"/>
			<point x="289" y="639"/>
			<point x="322" y="646"/>
			<point x="331" y="646" type="curve" smooth="yes"/>
			<point x="356" y="646"/>
			<point x="370" y="632"/>
			<point x="370" y="605" type="curve" smooth="yes"/>
			<point x="370" y="289" type="line" smooth="yes"/>
			<point x="370" y="148"/>
			<point x="318" y="78"/>
			<point x="213" y="78" type="curve" smooth="yes"/>
			<point x="-35" y="78" type="line"/>
		</contour>
		<contour>
			<point x="177" y="502" type="curve" smooth="yes"/>
			<point x="144" y="502"/>
			<point x="121" y="524"/>
			<point x="121" y="557" type="curve" smooth="yes"/>
			<point x="121" y="591"/>
			<point x="145" y="616"/>
			<point x="178" y="616" type="curve" smooth="yes"/>
			<point x="210" y="616"/>
			<point x="233" y="591"/>
			<point x="233" y="558" type="curve" smooth="yes"/>
			<point x="233" y="525"/>
			<point x="210" y="502"/>
		</contour>
	</outline>
	<anchor name="top" x="241" y="714"/>
</glyph>
<glyph name="la-rohg.init" format="2">
	<advance width="389"/>
	<outline>
		<contour>
			<point x="-35" y="16" type="line"/>
			<point x="-20" y="8"/>
			<point x="14" y="0"/>
			<point x="35" y="0" type="curve" smooth="yes"/>
			<point x="63" y="0" type="line" smooth="yes"/>
			<point x="224" y="0"/>
			<point x="309" y="100"/>
			<point x="309" y="289" type="curve" smooth="yes"/>
			<point x="309" y="714" type="line"/>
			<point x="220" y="714" type="line"/>
			<point x="220" y="289" type="line" smooth="yes"/>
			<point x="220" y="148"/>
			<point x="168" y="78"/>
			<point x="63" y="78" type="curve" smooth="yes"/>
			<point x="-35" y="78" type="line"/>
		</contour>
	</outline>
	<anchor name="top" x="264" y="714"/>
</glyph>
<glyph name="ma-rohg.init" format="2">
	<advance width="497"/>
	<outline>
		<contour>
			<point x="-35" y="16" type="line"/>
			<point x="-20" y="8"/>
			<point x="15" y="0"/>
			<point x="35" y="0" type="curve" smooth="yes"/>
			<point x="99" y="0"/>
			<point x="151" y="30"/>
			<point x="180" y="76" type="curve"/>
			<point x="209" y="169" type="line" smooth="yes"/>
			<point x="237" y="260"/>
			<point x="261" y="292"/>
			<point x="302" y="292" type="curve" smooth="yes"/>
			<point x="350" y="292"/>
			<point x="378" y="252"/>
			<point x="378" y="185" type="curve" smooth="yes"/>
			<point x="378" y="116"/>
			<point x="348" y="78"/>
			<point x="295" y="78" type="curve" smooth="yes"/>
			<point x="243" y="78"/>
			<point x="204" y="104"/>
			<point x="181" y="153" type="curve"/>
			<point x="145" y="65" type="line"/>
			<point x="196" y="17"/>
			<point x="235" y="0"/>
			<point x="294" y="0" type="curve" smooth="yes"/>
			<point x="405" y="0"/>
			<point x="467" y="66"/>
			<point x="467" y="185" type="curve" smooth="yes"/>
			<point x="467" y="299"/>
			<point x="406" y="368"/>
			<point x="305" y="368" type="curve" smooth="yes"/>
			<point x="217" y="368"/>
			<point x="169" y="321"/>
			<point x="132" y="200" type="curve" smooth="yes"/>
			<point x="117" y="152" type="line" smooth="yes"/>
			<point x="99" y="93"/>
			<point x="77" y="78"/>
			<point x="9" y="78" type="curve" smooth="yes"/>
			<point x="-35" y="78" type="line"/>
		</contour>
	</outline>
	<anchor name="top" x="311" y="714"/>
</glyph>
<glyph name="na-rohg.init" format="2">
	<advance width="757"/>
	<outline>
		<contour>
			<point x="330" y="0" type="curve" smooth="yes"/>
			<point x="434" y="0"/>
			<point x="502" y="68"/>
			<point x="502" y="171" type="curve" smooth="yes"/>
			<point x="502" y="281"/>
			<point x="435" y="350"/>
			<point x="329" y="350" type="curve" smooth="yes"/>
			<point x="282" y="350"/>
			<point x="246" y="340"/>
			<point x="192" y="311" type="curve"/>
			<point x="221" y="238" type="line"/>
			<point x="253" y="262"/>
			<point x="283" y="272"/>
			<point x="320" y="272" type="curve" smooth="yes"/>
			<point x="378" y="272"/>
			<point x="413" y="235"/>
			<point x="413" y="172" type="curve" smooth="yes"/>
			<point x="413" y="116"/>
			<point x="379" y="78"/>
			<point x="330" y="78" type="curve" smooth="yes"/>
			<point x="279" y="78"/>
			<point x="239" y="103"/>
			<point x="216" y="153" type="curve"/>
			<point x="180" y="65" type="line"/>
			<point x="231" y="17"/>
			<point x="270" y="0"/>
		</contour>
		<contour>
			<point x="-35" y="16" type="line"/>
			<point x="-20" y="8"/>
			<point x="15" y="0"/>
			<point x="35" y="0" type="curve" smooth="yes"/>
			<point x="46" y="0" type="line" smooth="yes"/>
			<point x="187" y="0"/>
			<point x="248" y="100"/>
			<point x="248" y="289" type="curve" smooth="yes"/>
			<point x="248" y="407" type="line" smooth="yes"/>
			<point x="248" y="515"/>
			<point x="310" y="576"/>
			<point x="418" y="576" type="curve" smooth="yes"/>
			<point x="526" y="576"/>
			<point x="588" y="515"/>
			<point x="588" y="407" type="curve" smooth="yes"/>
			<point x="588" y="0" type="line"/>
			<point x="677" y="0" type="line"/>
			<point x="677" y="407" type="line" smooth="yes"/>
			<point x="677" y="562"/>
			<point x="580" y="654"/>
			<point x="418" y="654" type="curve" smooth="yes"/>
			<point x="256" y="654"/>
			<point x="159" y="562"/>
			<point x="159" y="407" type="curve" smooth="yes"/>
			<point x="159" y="289" type="line" smooth="yes"/>
			<point x="159" y="148"/>
			<point x="131" y="78"/>
			<point x="46" y="78" type="curve" smooth="yes"/>
			<point x="-35" y="78" type="line"/>
		</contour>
	</outline>
	<anchor name="top" x="418" y="714"/>
</glyph>
<glyph name="nga-rohg.init" format="2">
	<advance width="640"/>
	<outline>
		<contour>
			<point x="297" y="0" type="curve" smooth="yes"/>
			<point x="416" y="0"/>
			<point x="479" y="69"/>
			<point x="479" y="199" type="curve" smooth="yes"/>
			<point x="479" y="714" type="line"/>
			<point x="390" y="714" type="line"/>
			<point x="390" y="199" type="line" smooth="yes"/>
			<point x="390" y="116"/>
			<point x="357" y="78"/>
			<point x="287" y="78" type="curve" smooth="yes"/>
			<point x="235" y="78"/>
			<point x="188" y="91"/>
			<point x="139" y="119" type="curve"/>
			<point x="104" y="60" type="line"/>
			<point x="173" y="16"/>
			<point x="224" y="0"/>
		</contour>
		<contour>
			<point x="-35" y="16" type="line"/>
			<point x="-20" y="8"/>
			<point x="15" y="0"/>
			<point x="35" y="0" type="curve" smooth="yes"/>
			<point x="97" y="0"/>
			<point x="150" y="33"/>
			<point x="231" y="121" type="curve" smooth="yes"/>
			<point x="423" y="328" type="line"/>
			<point x="450" y="348" type="line"/>
			<point x="630" y="537" type="line"/>
			<point x="571" y="591" type="line"/>
			<point x="453" y="464" type="line"/>
			<point x="428" y="443" type="line"/>
			<point x="181" y="180" type="line" smooth="yes"/>
			<point x="106" y="100"/>
			<point x="68" y="78"/>
			<point x="4" y="78" type="curve" smooth="yes"/>
			<point x="-35" y="78" type="line"/>
		</contour>
	</outline>
	<anchor name="top" x="316" y="714"/>
</glyph>
<glyph name="nya-rohg.init" format="2">
	<advance width="496"/>
	<outline>
		<contour>
			<point x="-35" y="16" type="line"/>
			<point x="-20" y="8"/>
			<point x="15" y="0"/>
			<point x="35" y="0" type="curve" smooth="yes"/>
			<point x="63" y="0" type="line" smooth="yes"/>
			<point x="224" y="0"/>
			<point x="310" y="100"/>
			<point x="310" y="289" type="curve" smooth="yes"/>
			<point x="310" y="714" type="line"/>
			<point x="221" y="714" type="line"/>
			<point x="221" y="289" type="line" smooth="yes"/>
			<point x="221" y="148"/>
			<point x="169" y="78"/>
			<point x="63" y="78" type="curve" smooth="yes"/>
			<point x="-35" y="78" type="line"/>
		</contour>
		<contour>
			<point x="397" y="364" type="line"/>
			<point x="486" y="364" type="line"/>
			<point x="486" y="419" type="line" smooth="yes"/>
			<point x="486" y="493"/>
			<point x="441" y="536"/>
			<point x="364" y="536" type="curve" smooth="yes"/>
			<point x="278" y="536" type="line"/>
			<point x="278" y="458" type="line"/>
			<point x="356" y="458" type="line" smooth="yes"/>
			<point x="382" y="458"/>
			<point x="397" y="444"/>
			<point x="397" y="419" type="curve" smooth="yes"/>
		</contour>
	</outline>
	<anchor name="top" x="265" y="714"/>
</glyph>
<glyph name="ovowel-rohg.init" format="2">
	<advance width="484"/>
	<outline>
		<contour>
			<point x="-35" y="16" type="line"/>
			<point x="-20" y="8"/>
			<point x="15" y="0"/>
			<point x="35" y="0" type="curve" smooth="yes"/>
			<point x="238" y="0" type="line" smooth="yes"/>
			<point x="370" y="0"/>
			<point x="439" y="53"/>
			<point x="439" y="155" type="curve" smooth="yes"/>
			<point x="439" y="240"/>
			<point x="389" y="285"/>
			<point x="283" y="297" type="curve"/>
			<point x="263" y="265" type="line"/>
			<point x="347" y="269"/>
			<point x="403" y="321"/>
			<point x="403" y="394" type="curve" smooth="yes"/>
			<point x="403" y="482"/>
			<point x="346" y="536"/>
			<point x="252" y="536" type="curve" smooth="yes"/>
			<point x="152" y="536"/>
			<point x="94" y="473"/>
			<point x="94" y="364" type="curve" smooth="yes"/>
			<point x="94" y="39" type="line"/>
			<point x="183" y="39" type="line"/>
			<point x="183" y="364" type="line" smooth="yes"/>
			<point x="183" y="429"/>
			<point x="203" y="458"/>
			<point x="249" y="458" type="curve" smooth="yes"/>
			<point x="292" y="458"/>
			<point x="314" y="433"/>
			<point x="314" y="383" type="curve" smooth="yes"/>
			<point x="314" y="344"/>
			<point x="283" y="315"/>
			<point x="236" y="310" type="curve"/>
			<point x="236" y="238" type="line"/>
			<point x="248" y="238" type="line" smooth="yes"/>
			<point x="317" y="238"/>
			<point x="350" y="212"/>
			<point x="350" y="158" type="curve" smooth="yes"/>
			<point x="350" y="103"/>
			<point x="318" y="78"/>
			<point x="248" y="78" type="curve" smooth="yes"/>
			<point x="-35" y="78" type="line"/>
		</contour>
	</outline>
	<anchor name="top" x="248" y="714"/>
</glyph>
<glyph name="pa-rohg.init" format="2">
	<advance width="402"/>
	<outline>
		<contour>
			<point x="-35" y="16" type="line"/>
			<point x="-20" y="8"/>
			<point x="15" y="0"/>
			<point x="35" y="0" type="curve" smooth="yes"/>
			<point x="111" y="0" type="line" smooth="yes"/>
			<point x="276" y="0"/>
			<point x="357" y="95"/>
			<point x="357" y="289" type="curve" smooth="yes"/>
			<point x="357" y="355" type="line" smooth="yes"/>
			<point x="357" y="464"/>
			<point x="294" y="536"/>
			<point x="197" y="536" type="curve" smooth="yes"/>
			<point x="111" y="536"/>
			<point x="47" y="475"/>
			<point x="47" y="393" type="curve" smooth="yes"/>
			<point x="47" y="307"/>
			<point x="115" y="247"/>
			<point x="240" y="247" type="curve" smooth="yes"/>
			<point x="284" y="247" type="line"/>
			<point x="284" y="322" type="line"/>
			<point x="240" y="322" type="line" smooth="yes"/>
			<point x="172" y="322"/>
			<point x="133" y="349"/>
			<point x="133" y="395" type="curve" smooth="yes"/>
			<point x="133" y="432"/>
			<point x="161" y="461"/>
			<point x="197" y="461" type="curve" smooth="yes"/>
			<point x="241" y="461"/>
			<point x="268" y="420"/>
			<point x="268" y="355" type="curve" smooth="yes"/>
			<point x="268" y="289" type="line" smooth="yes"/>
			<point x="268" y="147"/>
			<point x="216" y="78"/>
			<point x="111" y="78" type="curve" smooth="yes"/>
			<point x="-35" y="78" type="line"/>
		</contour>
	</outline>
	<anchor name="top" x="201" y="714"/>
</glyph>
<glyph name="ra-rohg.init" format="2">
	<advance width="545"/>
	<outline>
		<contour>
			<point x="-35" y="16" type="line"/>
			<point x="-20" y="8"/>
			<point x="15" y="0"/>
			<point x="35" y="0" type="curve" smooth="yes"/>
			<point x="80" y="0" type="line" smooth="yes"/>
			<point x="241" y="0"/>
			<point x="326" y="100"/>
			<point x="326" y="289" type="curve" smooth="yes"/>
			<point x="326" y="443" type="line"/>
			<point x="326" y="453" type="line"/>
			<point x="326" y="567" type="line" smooth="yes"/>
			<point x="326" y="620"/>
			<point x="351" y="649"/>
			<point x="390" y="649" type="curve" smooth="yes"/>
			<point x="428" y="649"/>
			<point x="449" y="620"/>
			<point x="449" y="583" type="curve" smooth="yes"/>
			<point x="449" y="536"/>
			<point x="415" y="508"/>
			<point x="356" y="508" type="curve" smooth="yes"/>
			<point x="257" y="508" type="line"/>
			<point x="247" y="508" type="line"/>
			<point x="130" y="508" type="line"/>
			<point x="130" y="433" type="line"/>
			<point x="359" y="433" type="line" smooth="yes"/>
			<point x="464" y="433"/>
			<point x="535" y="494"/>
			<point x="535" y="584" type="curve" smooth="yes"/>
			<point x="535" y="665"/>
			<point x="476" y="724"/>
			<point x="390" y="724" type="curve" smooth="yes"/>
			<point x="301" y="724"/>
			<point x="237" y="660"/>
			<point x="237" y="567" type="curve" smooth="yes"/>
			<point x="237" y="289" type="line" smooth="yes"/>
			<point x="237" y="148"/>
			<point x="185" y="78"/>
			<point x="80" y="78" type="curve" smooth="yes"/>
			<point x="-35" y="78" type="line"/>
		</contour>
	</outline>
	<anchor name="top" x="349" y="714"/>
</glyph>
<glyph name="rra-rohg.init" format="2">
	<advance width="752"/>
	<outline>
		<contour>
			<point x="151" y="47" type="line"/>
			<point x="240" y="47" type="line"/>
			<point x="240" y="453" type="line"/>
			<point x="240" y="463" type="line"/>
			<point x="240" y="567" type="line" smooth="yes"/>
			<point x="240" y="620"/>
			<point x="265" y="649"/>
			<point x="304" y="649" type="curve" smooth="yes"/>
			<point x="342" y="649"/>
			<point x="363" y="620"/>
			<point x="363" y="583" type="curve" smooth="yes"/>
			<point x="363" y="536"/>
			<point x="329" y="508"/>
			<point x="270" y="508" type="curve" smooth="yes"/>
			<point x="171" y="508" type="line"/>
			<point x="161" y="508" type="line"/>
			<point x="44" y="508" type="line"/>
			<point x="44" y="433" type="line"/>
			<point x="273" y="433" type="line" smooth="yes"/>
			<point x="378" y="433"/>
			<point x="449" y="494"/>
			<point x="449" y="584" type="curve" smooth="yes"/>
			<point x="449" y="665"/>
			<point x="390" y="724"/>
			<point x="304" y="724" type="curve" smooth="yes"/>
			<point x="215" y="724"/>
			<point x="151" y="660"/>
			<point x="151" y="567" type="curve" smooth="yes"/>
		</contour>
		<contour>
			<point x="-35" y="16" type="line"/>
			<point x="-20" y="8"/>
			<point x="15" y="0"/>
			<point x="35" y="0" type="curve" smooth="yes"/>
			<point x="430" y="0" type="line" smooth="yes"/>
			<point x="607" y="0"/>
			<point x="707" y="74"/>
			<point x="707" y="204" type="curve" smooth="yes"/>
			<point x="707" y="309"/>
			<point x="632" y="380"/>
			<point x="523" y="380" type="curve" smooth="yes"/>
			<point x="412" y="380"/>
			<point x="287" y="287"/>
			<point x="200" y="139" type="curve"/>
			<point x="200" y="31" type="line"/>
			<point x="298" y="199"/>
			<point x="417" y="301"/>
			<point x="516" y="301" type="curve" smooth="yes"/>
			<point x="581" y="301"/>
			<point x="618" y="265"/>
			<point x="618" y="203" type="curve" smooth="yes"/>
			<point x="618" y="119"/>
			<point x="550" y="78"/>
			<point x="411" y="78" type="curve" smooth="yes"/>
			<point x="-35" y="78" type="line"/>
		</contour>
	</outline>
	<anchor name="top" x="429" y="714"/>
</glyph>
<glyph name="sa-rohg.init" format="2">
	<advance width="482"/>
	<outline>
		<contour>
			<point x="-35" y="16" type="line"/>
			<point x="-20" y="8"/>
			<point x="15" y="0"/>
			<point x="35" y="0" type="curve" smooth="yes"/>
			<point x="191" y="0" type="line" smooth="yes"/>
			<point x="356" y="0"/>
			<point x="437" y="95"/>
			<point x="437" y="289" type="curve" smooth="yes"/>
			<point x="437" y="439"/>
			<point x="356" y="536"/>
			<point x="231" y="536" type="curve" smooth="yes"/>
			<point x="130" y="536"/>
			<point x="52" y="469"/>
			<point x="52" y="381" type="curve" smooth="yes"/>
			<point x="52" y="303"/>
			<point x="113" y="247"/>
			<point x="198" y="247" type="curve" smooth="yes"/>
			<point x="229" y="247" type="line"/>
			<point x="229" y="323" type="line"/>
			<point x="199" y="323" type="line" smooth="yes"/>
			<point x="162" y="323"/>
			<point x="139" y="346"/>
			<point x="139" y="383" type="curve" smooth="yes"/>
			<point x="139" y="428"/>
			<point x="175" y="460"/>
			<point x="228" y="460" type="curve" smooth="yes"/>
			<point x="303" y="460"/>
			<point x="348" y="395"/>
			<point x="348" y="289" type="curve" smooth="yes"/>
			<point x="348" y="147"/>
			<point x="296" y="78"/>
			<point x="191" y="78" type="curve" smooth="yes"/>
			<point x="-35" y="78" type="line"/>
		</contour>
	</outline>
	<anchor name="top" x="228" y="714"/>
</glyph>
<glyph name="sha-rohg.init" format="2">
	<advance width="679"/>
	<outline>
		<contour>
			<point x="-35" y="16" type="line"/>
			<point x="-20" y="8"/>
			<point x="15" y="0"/>
			<point x="35" y="0" type="curve" smooth="yes"/>
			<point x="49" y="0" type="line" smooth="yes"/>
			<point x="144" y="0"/>
			<point x="212" y="36"/>
			<point x="237" y="99" type="curve"/>
			<point x="217" y="103" type="line"/>
			<point x="238" y="39"/>
			<point x="308" y="0"/>
			<point x="402" y="0" type="curve" smooth="yes"/>
			<point x="555" y="0"/>
			<point x="634" y="98"/>
			<point x="634" y="289" type="curve" smooth="yes"/>
			<point x="634" y="439"/>
			<point x="553" y="536"/>
			<point x="428" y="536" type="curve" smooth="yes"/>
			<point x="327" y="536"/>
			<point x="249" y="469"/>
			<point x="249" y="381" type="curve" smooth="yes"/>
			<point x="249" y="303"/>
			<point x="310" y="247"/>
			<point x="395" y="247" type="curve" smooth="yes"/>
			<point x="426" y="247" type="line"/>
			<point x="426" y="323" type="line"/>
			<point x="396" y="323" type="line" smooth="yes"/>
			<point x="359" y="323"/>
			<point x="336" y="346"/>
			<point x="336" y="383" type="curve" smooth="yes"/>
			<point x="336" y="428"/>
			<point x="372" y="460"/>
			<point x="425" y="460" type="curve" smooth="yes"/>
			<point x="500" y="460"/>
			<point x="545" y="395"/>
			<point x="545" y="289" type="curve" smooth="yes"/>
			<point x="545" y="150"/>
			<point x="496" y="78"/>
			<point x="402" y="78" type="curve" smooth="yes"/>
			<point x="320" y="78"/>
			<point x="269" y="122"/>
			<point x="269" y="193" type="curve" smooth="yes"/>
			<point x="269" y="209" type="line"/>
			<point x="180" y="209" type="line"/>
			<point x="180" y="193" type="line" smooth="yes"/>
			<point x="180" y="117"/>
			<point x="132" y="78"/>
			<point x="40" y="78" type="curve" smooth="yes"/>
			<point x="-35" y="78" type="line"/>
		</contour>
	</outline>
	<anchor name="top" x="415" y="714"/>
</glyph>
<glyph name="ta-rohg.init" format="2">
	<advance width="439"/>
	<outline>
		<contour>
			<point x="-35" y="16" type="line"/>
			<point x="-20" y="8"/>
			<point x="15" y="0"/>
			<point x="35" y="0" type="curve" smooth="yes"/>
			<point x="113" y="0" type="line" smooth="yes"/>
			<point x="274" y="0"/>
			<point x="359" y="100"/>
			<point x="359" y="289" type="curve" smooth="yes"/>
			<point x="359" y="566" type="line" smooth="yes"/>
			<point x="359" y="667"/>
			<point x="307" y="724"/>
			<point x="209" y="724" type="curve" smooth="yes"/>
			<point x="113" y="724"/>
			<point x="66" y="669"/>
			<point x="66" y="556" type="curve" smooth="yes"/>
			<point x="66" y="525" type="line"/>
			<point x="153" y="525" type="line"/>
			<point x="153" y="555" type="line" smooth="yes"/>
			<point x="153" y="620"/>
			<point x="171" y="648"/>
			<point x="209" y="648" type="curve" smooth="yes"/>
			<point x="249" y="648"/>
			<point x="270" y="618"/>
			<point x="270" y="566" type="curve" smooth="yes"/>
			<point x="270" y="289" type="line" smooth="yes"/>
			<point x="270" y="148"/>
			<point x="218" y="78"/>
			<point x="113" y="78" type="curve" smooth="yes"/>
			<point x="-35" y="78" type="line"/>
		</contour>
	</outline>
	<anchor name="top" x="211" y="714"/>
</glyph>
<glyph name="tana-rohg.ss01" format="2">
	<outline>
		<contour>
			<point x="-149" y="861" type="line"/>
			<point x="-116" y="911"/>
			<point x="-91" y="924"/>
			<point x="-35" y="924" type="curve" smooth="yes"/>
			<point x="-10" y="924"/>
			<point x="26" y="921"/>
			<point x="79" y="914" type="curve" smooth="yes"/>
			<point x="148" y="905"/>
			<point x="184" y="902"/>
			<point x="228" y="902" type="curve" smooth="yes"/>
			<point x="317" y="902"/>
			<point x="361" y="935"/>
			<point x="393" y="1024" type="curve"/>
			<point x="321" y="1050" type="line"/>
			<point x="297" y="992"/>
			<point x="277" y="977"/>
			<point x="223" y="977" type="curve" smooth="yes"/>
			<point x="190" y="977"/>
			<point x="159" y="980"/>
			<point x="94" y="988" type="curve" smooth="yes"/>
			<point x="26" y="996"/>
			<point x="-5" y="999"/>
			<point x="-41" y="999" type="curve" smooth="yes"/>
			<point x="-119" y="999"/>
			<point x="-172" y="968"/>
			<point x="-213" y="901" type="curve"/>
		</contour>
	</outline>
	<anchor name="_top" x="0" y="714"/>
	<anchor name="top" x="0" y="1003"/>
</glyph>
<glyph name="tta-rohg.init" format="2">
	<advance width="488"/>
	<outline>
		<contour>
			<point x="-35" y="16" type="line"/>
			<point x="-20" y="8"/>
			<point x="15" y="0"/>
			<point x="35" y="0" type="curve" smooth="yes"/>
			<point x="63" y="0" type="line" smooth="yes"/>
			<point x="224" y="0"/>
			<point x="309" y="100"/>
			<point x="309" y="289" type="curve" smooth="yes"/>
			<point x="309" y="596" type="line" smooth="yes"/>
			<point x="309" y="620"/>
			<point x="325" y="636"/>
			<point x="351" y="636" type="curve" smooth="yes"/>
			<point x="478" y="636" type="line"/>
			<point x="478" y="714" type="line"/>
			<point x="342" y="714" type="line" smooth="yes"/>
			<point x="265" y="714"/>
			<point x="220" y="671"/>
			<point x="220" y="597" type="curve" smooth="yes"/>
			<point x="220" y="289" type="line" smooth="yes"/>
			<point x="220" y="148"/>
			<point x="168" y="78"/>
			<point x="63" y="78" type="curve" smooth="yes"/>
			<point x="-35" y="78" type="line"/>
		</contour>
	</outline>
	<anchor name="top" x="349" y="714"/>
</glyph>
<glyph name="uvowel-rohg.init" format="2">
	<advance width="643"/>
	<outline>
		<contour>
			<point x="-35" y="16" type="line"/>
			<point x="-20" y="8"/>
			<point x="15" y="0"/>
			<point x="35" y="0" type="curve" smooth="yes"/>
			<point x="121" y="0"/>
			<point x="182" y="35"/>
			<point x="204" y="100" type="curve"/>
			<point x="181" y="98" type="line"/>
			<point x="215" y="33"/>
			<point x="274" y="0"/>
			<point x="353" y="0" type="curve" smooth="yes"/>
			<point x="368" y="0" type="line" smooth="yes"/>
			<point x="497" y="0"/>
			<point x="563" y="83"/>
			<point x="563" y="247" type="curve" smooth="yes"/>
			<point x="563" y="323" type="line"/>
			<point x="474" y="323" type="line"/>
			<point x="474" y="247" type="line" smooth="yes"/>
			<point x="474" y="127"/>
			<point x="439" y="78"/>
			<point x="354" y="78" type="curve" smooth="yes"/>
			<point x="283" y="78"/>
			<point x="240" y="120"/>
			<point x="240" y="188" type="curve" smooth="yes"/>
			<point x="240" y="323" type="line"/>
			<point x="151" y="323" type="line"/>
			<point x="151" y="247" type="line" smooth="yes"/>
			<point x="151" y="126"/>
			<point x="115" y="78"/>
			<point x="24" y="78" type="curve" smooth="yes"/>
			<point x="-35" y="78" type="line"/>
		</contour>
	</outline>
	<anchor name="top" x="356" y="714"/>
</glyph>
<glyph name="wa-rohg.init" format="2">
	<advance width="457"/>
	<outline>
		<contour>
			<point x="-35" y="16" type="line"/>
			<point x="-20" y="8"/>
			<point x="15" y="0"/>
			<point x="35" y="0" type="curve" smooth="yes"/>
			<point x="208" y="0" type="line" smooth="yes"/>
			<point x="340" y="0"/>
			<point x="412" y="67"/>
			<point x="412" y="192" type="curve" smooth="yes"/>
			<point x="412" y="301"/>
			<point x="336" y="369"/>
			<point x="213" y="369" type="curve" smooth="yes"/>
			<point x="203" y="369" type="line"/>
			<point x="218" y="329" type="line"/>
			<point x="327" y="462" type="line" smooth="yes"/>
			<point x="358" y="500"/>
			<point x="375" y="539"/>
			<point x="375" y="583" type="curve" smooth="yes"/>
			<point x="375" y="667"/>
			<point x="315" y="724"/>
			<point x="234" y="724" type="curve" smooth="yes"/>
			<point x="152" y="724"/>
			<point x="91" y="665"/>
			<point x="91" y="589" type="curve" smooth="yes"/>
			<point x="91" y="511"/>
			<point x="154" y="460"/>
			<point x="231" y="460" type="curve"/>
			<point x="235" y="469" type="line"/>
			<point x="121" y="332" type="line"/>
			<point x="154" y="299" type="line"/>
			<point x="191" y="299" type="line" smooth="yes"/>
			<point x="280" y="299"/>
			<point x="323" y="264"/>
			<point x="323" y="192" type="curve" smooth="yes"/>
			<point x="323" y="120"/>
			<point x="280" y="78"/>
			<point x="206" y="78" type="curve" smooth="yes"/>
			<point x="-35" y="78" type="line"/>
		</contour>
		<contour>
			<point x="232" y="528" type="curve" smooth="yes"/>
			<point x="196" y="528"/>
			<point x="170" y="554"/>
			<point x="170" y="589" type="curve" smooth="yes"/>
			<point x="170" y="625"/>
			<point x="197" y="653"/>
			<point x="233" y="653" type="curve" smooth="yes"/>
			<point x="268" y="653"/>
			<point x="295" y="626"/>
			<point x="295" y="590" type="curve" smooth="yes"/>
			<point x="295" y="554"/>
			<point x="269" y="528"/>
		</contour>
	</outline>
	<anchor name="top" x="227" y="714"/>
</glyph>
<glyph name="xx.connection-rohg" format="2">
	<advance width="154"/>
	<outline>
		<contour>
			<point x="189" y="0" type="line"/>
			<point x="189" y="78" type="line"/>
			<point x="167" y="78" type="line" smooth="yes"/>
			<point x="82" y="78"/>
			<point x="22" y="121"/>
			<point x="22" y="185" type="curve"/>
			<point x="-30" y="185" type="line"/>
			<point x="-30" y="167" type="line" smooth="yes"/>
			<point x="-30" y="68"/>
			<point x="50" y="0"/>
			<point x="167" y="0" type="curve" smooth="yes"/>
		</contour>
	</outline>
</glyph>
<glyph name="xx.evowelmark-rohg" format="2">
	<advance width="249"/>
	<outline>
		<contour>
			<point x="239" y="-203" type="curve"/>
			<point x="239" y="-141" type="line"/>
			<point x="166" y="-141" type="line" smooth="yes"/>
			<point x="120" y="-141"/>
			<point x="97" y="-121"/>
			<point x="97" y="-83" type="curve" smooth="yes"/>
			<point x="97" y="-53" type="line"/>
			<point x="10" y="-53" type="line"/>
			<point x="10" y="-83" type="line" smooth="yes"/>
			<point x="10" y="-170"/>
			<point x="60" y="-215"/>
			<point x="155" y="-215" type="curve" smooth="yes"/>
			<point x="163" y="-215" type="line" smooth="yes"/>
			<point x="190" y="-215"/>
			<point x="215" y="-211"/>
		</contour>
	</outline>
</glyph>
<glyph name="xx.ivowelmark-rohg" format="2">
	<advance width="249"/>
	<outline>
		<contour>
			<point x="10" y="-203" type="line"/>
			<point x="34" y="-211"/>
			<point x="59" y="-215"/>
			<point x="86" y="-215" type="curve" smooth="yes"/>
			<point x="94" y="-215" type="line" smooth="yes"/>
			<point x="189" y="-215"/>
			<point x="239" y="-170"/>
			<point x="239" y="-83" type="curve" smooth="yes"/>
			<point x="239" y="-53" type="line"/>
			<point x="152" y="-53" type="line"/>
			<point x="152" y="-83" type="line" smooth="yes"/>
			<point x="152" y="-121"/>
			<point x="129" y="-141"/>
			<point x="83" y="-141" type="curve" smooth="yes"/>
			<point x="10" y="-141" type="line"/>
		</contour>
	</outline>
</glyph>
<glyph name="xx.singledot-rohg" format="2">
	<advance width="132"/>
	<outline>
		<contour>
			<point x="66" y="418" type="curve" smooth="yes"/>
			<point x="101" y="418"/>
			<point x="122" y="440"/>
			<point x="122" y="478" type="curve" smooth="yes"/>
			<point x="122" y="516"/>
			<point x="101" y="538"/>
			<point x="66" y="538" type="curve" smooth="yes"/>
			<point x="31" y="538"/>
			<point x="10" y="516"/>
			<point x="10" y="478" type="curve" smooth="yes"/>
			<point x="10" y="440"/>
			<point x="31" y="418"/>
		</contour>
	</outline>
</glyph>
<glyph name="xx.tripledot-rohg" format="2">
	<advance width="304"/>
	<outline>
		<contour>
			<point x="65" y="596" type="curve" smooth="yes"/>
			<point x="99" y="596"/>
			<point x="120" y="618"/>
			<point x="120" y="655" type="curve" smooth="yes"/>
			<point x="120" y="692"/>
			<point x="99" y="714"/>
			<point x="65" y="714" type="curve" smooth="yes"/>
			<point x="31" y="714"/>
			<point x="10" y="692"/>
			<point x="10" y="655" type="curve" smooth="yes"/>
			<point x="10" y="618"/>
			<point x="31" y="596"/>
		</contour>
		<contour>
			<point x="239" y="596" type="curve" smooth="yes"/>
			<point x="273" y="596"/>
			<point x="294" y="618"/>
			<point x="294" y="655" type="curve" smooth="yes"/>
			<point x="294" y="692"/>
			<point x="273" y="714"/>
			<point x="239" y="714" type="curve" smooth="yes"/>
			<point x="205" y="714"/>
			<point x="184" y="692"/>
			<point x="184" y="655" type="curve" smooth="yes"/>
			<point x="184" y="618"/>
			<point x="205" y="596"/>
		</contour>
		<contour>
			<point x="152" y="730" type="curve" smooth="yes"/>
			<point x="185" y="730"/>
			<point x="206" y="752"/>
			<point x="206" y="788" type="curve" smooth="yes"/>
			<point x="206" y="824"/>
			<point x="185" y="846"/>
			<point x="152" y="846" type="curve" smooth="yes"/>
			<point x="119" y="846"/>
			<point x="98" y="824"/>
			<point x="98" y="788" type="curve" smooth="yes"/>
			<point x="98" y="752"/>
			<point x="119" y="730"/>
		</contour>
	</outline>
</glyph>
<glyph name="ya-rohg.init" format="2">
	<advance width="475"/>
	<outline>
		<contour>
			<point x="-35" y="16" type="line"/>
			<point x="-20" y="8"/>
			<point x="15" y="0"/>
			<point x="35" y="0" type="curve" smooth="yes"/>
			<point x="113" y="0" type="line" smooth="yes"/>
			<point x="274" y="0"/>
			<point x="359" y="100"/>
			<point x="359" y="289" type="curve" smooth="yes"/>
			<point x="359" y="543" type="line" smooth="yes"/>
			<point x="359" y="652"/>
			<point x="296" y="724"/>
			<point x="199" y="724" type="curve" smooth="yes"/>
			<point x="113" y="724"/>
			<point x="49" y="663"/>
			<point x="49" y="581" type="curve" smooth="yes"/>
			<point x="49" y="495"/>
			<point x="117" y="435"/>
			<point x="242" y="435" type="curve" smooth="yes"/>
			<point x="465" y="435" type="line"/>
			<point x="465" y="510" type="line"/>
			<point x="323" y="510" type="line"/>
			<point x="311" y="510" type="line"/>
			<point x="242" y="510" type="line" smooth="yes"/>
			<point x="174" y="510"/>
			<point x="135" y="537"/>
			<point x="135" y="583" type="curve" smooth="yes"/>
			<point x="135" y="620"/>
			<point x="163" y="649"/>
			<point x="199" y="649" type="curve" smooth="yes"/>
			<point x="243" y="649"/>
			<point x="270" y="608"/>
			<point x="270" y="543" type="curve" smooth="yes"/>
			<point x="270" y="455" type="line"/>
			<point x="270" y="445" type="line"/>
			<point x="270" y="289" type="line" smooth="yes"/>
			<point x="270" y="148"/>
			<point x="218" y="78"/>
			<point x="113" y="78" type="curve" smooth="yes"/>
			<point x="-35" y="78" type="line"/>
		</contour>
	</outline>
	<anchor name="top" x="203" y="714"/>
</glyph>
<glyph name="za-rohg.init" format="2">
	<advance width="622"/>
	<outline>
		<contour>
			<point x="-35" y="16" type="line"/>
			<point x="-20" y="8"/>
			<point x="14" y="0"/>
			<point x="33" y="0" type="curve" smooth="yes"/>
			<point x="124" y="0" type="line" smooth="yes"/>
			<point x="305" y="0"/>
			<point x="408" y="104"/>
			<point x="408" y="289" type="curve" smooth="yes"/>
			<point x="408" y="557" type="line" smooth="yes"/>
			<point x="408" y="663"/>
			<point x="358" y="724"/>
			<point x="270" y="724" type="curve" smooth="yes"/>
			<point x="182" y="724"/>
			<point x="130" y="662"/>
			<point x="130" y="557" type="curve" smooth="yes"/>
			<point x="130" y="251" type="line" smooth="yes"/>
			<point x="130" y="95"/>
			<point x="220" y="0"/>
			<point x="369" y="0" type="curve" smooth="yes"/>
			<point x="420" y="0" type="line" smooth="yes"/>
			<point x="546" y="0"/>
			<point x="612" y="69"/>
			<point x="612" y="199" type="curve" smooth="yes"/>
			<point x="612" y="227" type="line"/>
			<point x="523" y="227" type="line"/>
			<point x="523" y="199" type="line" smooth="yes"/>
			<point x="523" y="116"/>
			<point x="490" y="78"/>
			<point x="420" y="78" type="curve" smooth="yes"/>
			<point x="365" y="78" type="line" smooth="yes"/>
			<point x="273" y="78"/>
			<point x="219" y="142"/>
			<point x="219" y="251" type="curve" smooth="yes"/>
			<point x="219" y="557" type="line" smooth="yes"/>
			<point x="219" y="617"/>
			<point x="236" y="646"/>
			<point x="270" y="646" type="curve" smooth="yes"/>
			<point x="303" y="646"/>
			<point x="319" y="617"/>
			<point x="319" y="557" type="curve" smooth="yes"/>
			<point x="319" y="289" type="line" smooth="yes"/>
			<point x="319" y="149"/>
			<point x="254" y="78"/>
			<point x="128" y="78" type="curve" smooth="yes"/>
			<point x="-35" y="78" type="line"/>
		</contour>
	</outline>
	<anchor name="top" x="269" y="714"/>
</glyph>
